<mxfile host="65bd71144e">
    <diagram id="dn_fvUEHUw3yao8NgCPe" name="schema">
        <mxGraphModel dx="658" dy="451" grid="1" gridSize="10" guides="1" tooltips="1" connect="1" arrows="1" fold="1" page="1" pageScale="1" pageWidth="850" pageHeight="1100" math="0" shadow="0">
            <root>
                <mxCell id="G1TqYwYSqkiqv0UsKyad-0"/>
                <mxCell id="G1TqYwYSqkiqv0UsKyad-1" parent="G1TqYwYSqkiqv0UsKyad-0"/>
                <mxCell id="G1TqYwYSqkiqv0UsKyad-2" value="Admin-Credential" style="swimlane;childLayout=stackLayout;horizontal=1;startSize=30;horizontalStack=0;rounded=1;fontSize=14;fontStyle=0;strokeWidth=2;resizeParent=0;resizeLast=1;shadow=0;dashed=0;align=center;" parent="G1TqYwYSqkiqv0UsKyad-1" vertex="1">
                    <mxGeometry x="120" y="80" width="160" height="120" as="geometry"/>
                </mxCell>
                <mxCell id="G1TqYwYSqkiqv0UsKyad-3" value="+_id&#10;+username&#10;+password" style="align=left;strokeColor=none;fillColor=none;spacingLeft=4;fontSize=12;verticalAlign=top;resizable=0;rotatable=0;part=1;" parent="G1TqYwYSqkiqv0UsKyad-2" vertex="1">
                    <mxGeometry y="30" width="160" height="90" as="geometry"/>
                </mxCell>
                <mxCell id="G1TqYwYSqkiqv0UsKyad-4" value="Doctor-Credential" style="swimlane;childLayout=stackLayout;horizontal=1;startSize=30;horizontalStack=0;rounded=1;fontSize=14;fontStyle=0;strokeWidth=2;resizeParent=0;resizeLast=1;shadow=0;dashed=0;align=center;" parent="G1TqYwYSqkiqv0UsKyad-1" vertex="1">
                    <mxGeometry x="120" y="240" width="160" height="120" as="geometry"/>
                </mxCell>
                <mxCell id="G1TqYwYSqkiqv0UsKyad-5" value="+_id&#10;+username&#10;+password" style="align=left;strokeColor=none;fillColor=none;spacingLeft=4;fontSize=12;verticalAlign=top;resizable=0;rotatable=0;part=1;" parent="G1TqYwYSqkiqv0UsKyad-4" vertex="1">
                    <mxGeometry y="30" width="160" height="90" as="geometry"/>
                </mxCell>
                <mxCell id="G1TqYwYSqkiqv0UsKyad-6" value="Patient-Credential" style="swimlane;childLayout=stackLayout;horizontal=1;startSize=30;horizontalStack=0;rounded=1;fontSize=14;fontStyle=0;strokeWidth=2;resizeParent=0;resizeLast=1;shadow=0;dashed=0;align=center;" parent="G1TqYwYSqkiqv0UsKyad-1" vertex="1">
                    <mxGeometry x="120" y="400" width="160" height="120" as="geometry"/>
                </mxCell>
                <mxCell id="G1TqYwYSqkiqv0UsKyad-7" value="+_id&#10;+username&#10;+password" style="align=left;strokeColor=none;fillColor=none;spacingLeft=4;fontSize=12;verticalAlign=top;resizable=0;rotatable=0;part=1;" parent="G1TqYwYSqkiqv0UsKyad-6" vertex="1">
                    <mxGeometry y="30" width="160" height="90" as="geometry"/>
                </mxCell>
                <mxCell id="G1TqYwYSqkiqv0UsKyad-8" value="Doctor" style="swimlane;childLayout=stackLayout;horizontal=1;startSize=30;horizontalStack=0;rounded=1;fontSize=14;fontStyle=0;strokeWidth=2;resizeParent=0;resizeLast=1;shadow=0;dashed=0;align=center;" parent="G1TqYwYSqkiqv0UsKyad-1" vertex="1">
                    <mxGeometry x="360" y="240" width="160" height="120" as="geometry"/>
                </mxCell>
                <mxCell id="G1TqYwYSqkiqv0UsKyad-9" value="+name&#10;+specialty&#10;+shifts[ ]" style="align=left;strokeColor=none;fillColor=none;spacingLeft=4;fontSize=12;verticalAlign=top;resizable=0;rotatable=0;part=1;" parent="G1TqYwYSqkiqv0UsKyad-8" vertex="1">
                    <mxGeometry y="30" width="160" height="90" as="geometry"/>
                </mxCell>
                <mxCell id="G1TqYwYSqkiqv0UsKyad-10" value="Patient" style="swimlane;childLayout=stackLayout;horizontal=1;startSize=30;horizontalStack=0;rounded=1;fontSize=14;fontStyle=0;strokeWidth=2;resizeParent=0;resizeLast=1;shadow=0;dashed=0;align=center;" parent="G1TqYwYSqkiqv0UsKyad-1" vertex="1">
                    <mxGeometry x="360" y="400" width="160" height="120" as="geometry"/>
                </mxCell>
                <mxCell id="G1TqYwYSqkiqv0UsKyad-11" value="+name&#10;+appointments[ ]" style="align=left;strokeColor=none;fillColor=none;spacingLeft=4;fontSize=12;verticalAlign=top;resizable=0;rotatable=0;part=1;" parent="G1TqYwYSqkiqv0UsKyad-10" vertex="1">
                    <mxGeometry y="30" width="160" height="90" as="geometry"/>
                </mxCell>
                <mxCell id="G1TqYwYSqkiqv0UsKyad-12" value="Shift" style="swimlane;childLayout=stackLayout;horizontal=1;startSize=30;horizontalStack=0;rounded=1;fontSize=14;fontStyle=0;strokeWidth=2;resizeParent=0;resizeLast=1;shadow=0;dashed=0;align=center;" parent="G1TqYwYSqkiqv0UsKyad-1" vertex="1">
                    <mxGeometry x="600" y="240" width="160" height="120" as="geometry"/>
                </mxCell>
                <mxCell id="G1TqYwYSqkiqv0UsKyad-13" value="+_id&#10;+days[]&#10;+start&#10;+end" style="align=left;strokeColor=none;fillColor=none;spacingLeft=4;fontSize=12;verticalAlign=top;resizable=0;rotatable=0;part=1;" parent="G1TqYwYSqkiqv0UsKyad-12" vertex="1">
                    <mxGeometry y="30" width="160" height="90" as="geometry"/>
                </mxCell>
                <mxCell id="G1TqYwYSqkiqv0UsKyad-14" value="" style="edgeStyle=entityRelationEdgeStyle;fontSize=12;html=1;endArrow=ERmandOne;startArrow=ERmandOne;rounded=0;exitX=1;exitY=0.5;exitDx=0;exitDy=0;entryX=0;entryY=0.5;entryDx=0;entryDy=0;" parent="G1TqYwYSqkiqv0UsKyad-1" source="G1TqYwYSqkiqv0UsKyad-5" target="G1TqYwYSqkiqv0UsKyad-9" edge="1">
                    <mxGeometry width="100" height="100" relative="1" as="geometry">
                        <mxPoint x="370" y="340" as="sourcePoint"/>
                        <mxPoint x="470" y="240" as="targetPoint"/>
                    </mxGeometry>
                </mxCell>
                <mxCell id="G1TqYwYSqkiqv0UsKyad-15" value="" style="edgeStyle=entityRelationEdgeStyle;fontSize=12;html=1;endArrow=ERoneToMany;rounded=0;exitX=1;exitY=0.5;exitDx=0;exitDy=0;entryX=0;entryY=0.5;entryDx=0;entryDy=0;" parent="G1TqYwYSqkiqv0UsKyad-1" source="G1TqYwYSqkiqv0UsKyad-9" target="G1TqYwYSqkiqv0UsKyad-13" edge="1">
                    <mxGeometry width="100" height="100" relative="1" as="geometry">
                        <mxPoint x="370" y="340" as="sourcePoint"/>
                        <mxPoint x="470" y="240" as="targetPoint"/>
                    </mxGeometry>
                </mxCell>
                <mxCell id="G1TqYwYSqkiqv0UsKyad-16" value="" style="edgeStyle=entityRelationEdgeStyle;fontSize=12;html=1;endArrow=ERmandOne;startArrow=ERmandOne;rounded=0;exitX=1;exitY=0.5;exitDx=0;exitDy=0;entryX=0;entryY=0.5;entryDx=0;entryDy=0;" parent="G1TqYwYSqkiqv0UsKyad-1" source="G1TqYwYSqkiqv0UsKyad-7" target="G1TqYwYSqkiqv0UsKyad-11" edge="1">
                    <mxGeometry width="100" height="100" relative="1" as="geometry">
                        <mxPoint x="290" y="325" as="sourcePoint"/>
                        <mxPoint x="370" y="325" as="targetPoint"/>
                    </mxGeometry>
                </mxCell>
                <mxCell id="G1TqYwYSqkiqv0UsKyad-17" value="appointment" style="swimlane;childLayout=stackLayout;horizontal=1;startSize=30;horizontalStack=0;rounded=1;fontSize=14;fontStyle=0;strokeWidth=2;resizeParent=0;resizeLast=1;shadow=0;dashed=0;align=center;" parent="G1TqYwYSqkiqv0UsKyad-1" vertex="1">
                    <mxGeometry x="600" y="400" width="160" height="120" as="geometry"/>
                </mxCell>
                <mxCell id="G1TqYwYSqkiqv0UsKyad-18" value="+_id&#10;+doctor&#10;+patient&#10;+day&#10;+time" style="align=left;strokeColor=none;fillColor=none;spacingLeft=4;fontSize=12;verticalAlign=top;resizable=0;rotatable=0;part=1;" parent="G1TqYwYSqkiqv0UsKyad-17" vertex="1">
                    <mxGeometry y="30" width="160" height="90" as="geometry"/>
                </mxCell>
                <mxCell id="G1TqYwYSqkiqv0UsKyad-19" value="" style="edgeStyle=entityRelationEdgeStyle;fontSize=12;html=1;endArrow=ERoneToMany;rounded=0;exitX=1;exitY=0.5;exitDx=0;exitDy=0;entryX=0;entryY=0.5;entryDx=0;entryDy=0;" parent="G1TqYwYSqkiqv0UsKyad-1" source="G1TqYwYSqkiqv0UsKyad-11" target="G1TqYwYSqkiqv0UsKyad-18" edge="1">
                    <mxGeometry width="100" height="100" relative="1" as="geometry">
                        <mxPoint x="530" y="325" as="sourcePoint"/>
                        <mxPoint x="610" y="325" as="targetPoint"/>
                    </mxGeometry>
                </mxCell>
                <mxCell id="G1TqYwYSqkiqv0UsKyad-20" value="" style="edgeStyle=entityRelationEdgeStyle;fontSize=12;html=1;endArrow=ERoneToMany;rounded=0;exitX=1;exitY=0.5;exitDx=0;exitDy=0;entryX=0;entryY=0.5;entryDx=0;entryDy=0;" parent="G1TqYwYSqkiqv0UsKyad-1" source="G1TqYwYSqkiqv0UsKyad-9" target="G1TqYwYSqkiqv0UsKyad-18" edge="1">
                    <mxGeometry width="100" height="100" relative="1" as="geometry">
                        <mxPoint x="540" y="335" as="sourcePoint"/>
                        <mxPoint x="620" y="335" as="targetPoint"/>
                    </mxGeometry>
                </mxCell>
                <mxCell id="G1TqYwYSqkiqv0UsKyad-21" value="Service Category" style="swimlane;childLayout=stackLayout;horizontal=1;startSize=30;horizontalStack=0;rounded=1;fontSize=14;fontStyle=0;strokeWidth=2;resizeParent=0;resizeLast=1;shadow=0;dashed=0;align=center;" parent="G1TqYwYSqkiqv0UsKyad-1" vertex="1">
                    <mxGeometry x="120" y="560" width="160" height="120" as="geometry"/>
                </mxCell>
                <mxCell id="G1TqYwYSqkiqv0UsKyad-22" value="+_id&#10;+name" style="align=left;strokeColor=none;fillColor=none;spacingLeft=4;fontSize=12;verticalAlign=top;resizable=0;rotatable=0;part=1;" parent="G1TqYwYSqkiqv0UsKyad-21" vertex="1">
                    <mxGeometry y="30" width="160" height="90" as="geometry"/>
                </mxCell>
                <mxCell id="G1TqYwYSqkiqv0UsKyad-23" value="Service" style="swimlane;childLayout=stackLayout;horizontal=1;startSize=30;horizontalStack=0;rounded=1;fontSize=14;fontStyle=0;strokeWidth=2;resizeParent=0;resizeLast=1;shadow=0;dashed=0;align=center;" parent="G1TqYwYSqkiqv0UsKyad-1" vertex="1">
                    <mxGeometry x="360" y="560" width="160" height="120" as="geometry"/>
                </mxCell>
                <mxCell id="G1TqYwYSqkiqv0UsKyad-24" value="+_id&#10;+categoryID&#10;+time" style="align=left;strokeColor=none;fillColor=none;spacingLeft=4;fontSize=12;verticalAlign=top;resizable=0;rotatable=0;part=1;" parent="G1TqYwYSqkiqv0UsKyad-23" vertex="1">
                    <mxGeometry y="30" width="160" height="90" as="geometry"/>
                </mxCell>
                <mxCell id="G1TqYwYSqkiqv0UsKyad-25" value="" style="edgeStyle=entityRelationEdgeStyle;fontSize=12;html=1;endArrow=ERoneToMany;rounded=0;exitX=1;exitY=0.5;exitDx=0;exitDy=0;entryX=0;entryY=0.5;entryDx=0;entryDy=0;" parent="G1TqYwYSqkiqv0UsKyad-1" source="G1TqYwYSqkiqv0UsKyad-22" target="G1TqYwYSqkiqv0UsKyad-24" edge="1">
                    <mxGeometry width="100" height="100" relative="1" as="geometry">
                        <mxPoint x="530" y="485" as="sourcePoint"/>
                        <mxPoint x="610" y="485" as="targetPoint"/>
                    </mxGeometry>
                </mxCell>
                <mxCell id="G1TqYwYSqkiqv0UsKyad-26" value="" style="edgeStyle=entityRelationEdgeStyle;fontSize=12;html=1;endArrow=ERoneToMany;rounded=0;exitX=1;exitY=0.5;exitDx=0;exitDy=0;entryX=0;entryY=0.5;entryDx=0;entryDy=0;" parent="G1TqYwYSqkiqv0UsKyad-1" source="G1TqYwYSqkiqv0UsKyad-24" target="G1TqYwYSqkiqv0UsKyad-18" edge="1">
                    <mxGeometry width="100" height="100" relative="1" as="geometry">
                        <mxPoint x="290" y="645" as="sourcePoint"/>
                        <mxPoint x="370" y="645" as="targetPoint"/>
                    </mxGeometry>
                </mxCell>
            </root>
        </mxGraphModel>
    </diagram>
</mxfile>